<svg xmlns="http://www.w3.org/2000/svg" width="1200" height="650" viewBox="0 0 1200 650">
<rect width="100%" height="100%" fill="#0f172a"/>
<text x="24" y="34" fill="#e2e8f0" font-size="22" font-family="Arial, sans-serif">Sueño alrededor de parciales</text>
<line x1="80" y1="570" x2="1170" y2="570" stroke="#94a3b8" stroke-width="1"/>
<line x1="80" y1="60" x2="80" y2="570" stroke="#94a3b8" stroke-width="1"/>
<text x="80" y="622" fill="#cbd5e1" font-size="14" font-family="Arial, sans-serif">Días relativos al parcial</text>
<text x="18" y="80" fill="#cbd5e1" font-size="14" font-family="Arial, sans-serif" transform="rotate(-90 18,80)">sleep_minutes</text>
<line x1="74" y1="570.0" x2="80" y2="570.0" stroke="#94a3b8" stroke-width="1"/>
<text x="18" y="574.0" fill="#94a3b8" font-size="12" font-family="Arial, sans-serif">139.03</text>
<line x1="74" y1="467.9999999999985" x2="80" y2="467.9999999999985" stroke="#94a3b8" stroke-width="1"/>
<text x="18" y="471.9999999999985" fill="#94a3b8" font-size="12" font-family="Arial, sans-serif">139.43</text>
<line x1="74" y1="365.9999999999971" x2="80" y2="365.9999999999971" stroke="#94a3b8" stroke-width="1"/>
<text x="18" y="369.9999999999971" fill="#94a3b8" font-size="12" font-family="Arial, sans-serif">139.83</text>
<line x1="74" y1="264.0000000000029" x2="80" y2="264.0000000000029" stroke="#94a3b8" stroke-width="1"/>
<text x="18" y="268.0000000000029" fill="#94a3b8" font-size="12" font-family="Arial, sans-serif">140.23</text>
<line x1="74" y1="162.00000000000148" x2="80" y2="162.00000000000148" stroke="#94a3b8" stroke-width="1"/>
<text x="18" y="166.00000000000148" fill="#94a3b8" font-size="12" font-family="Arial, sans-serif">140.63</text>
<line x1="74" y1="60.0" x2="80" y2="60.0" stroke="#94a3b8" stroke-width="1"/>
<text x="18" y="64.0" fill="#94a3b8" font-size="12" font-family="Arial, sans-serif">141.03</text>
<path d="M 625.00 315.00" fill="none" stroke="#38bdf8" stroke-width="3"/>
<circle cx="625.00" cy="315.00" r="4" fill="#38bdf8"/>
<text x="1030" y="80" fill="#38bdf8" font-size="14" font-family="Arial, sans-serif">sleep</text>
</svg>