<svg xmlns="http://www.w3.org/2000/svg" width="1200" height="420" viewBox="0 0 1200 420">
<rect width="100%" height="100%" fill="#0f172a"/>
<text x="24" y="34" fill="#e2e8f0" font-size="22" font-family="Arial, sans-serif">Spotify: mapa por estudiante y día relativo</text>
<text x="150.0" y="50" fill="#94a3b8" font-size="11" font-family="Arial, sans-serif">-14</text>
<text x="393.7931034482759" y="50" fill="#94a3b8" font-size="11" font-family="Arial, sans-serif">-7</text>
<text x="637.5862068965517" y="50" fill="#94a3b8" font-size="11" font-family="Arial, sans-serif">0</text>
<text x="881.3793103448277" y="50" fill="#94a3b8" font-size="11" font-family="Arial, sans-serif">7</text>
<text x="1125.1724137931035" y="50" fill="#94a3b8" font-size="11" font-family="Arial, sans-serif">14</text>
<text x="150" y="400" fill="#cbd5e1" font-size="14" font-family="Arial, sans-serif">Días relativos al parcial</text>
<text x="20" y="76" fill="#cbd5e1" font-size="12" font-family="Arial, sans-serif">cande</text>
<rect x="150.00" y="60.00" width="33.83" height="23" fill="rgb(22,52,78)"/>
<rect x="184.83" y="60.00" width="33.83" height="23" fill="rgb(26,69,99)"/>
<rect x="219.66" y="60.00" width="33.83" height="23" fill="rgb(23,55,82)"/>
<rect x="254.48" y="60.00" width="33.83" height="23" fill="rgb(24,60,89)"/>
<rect x="289.31" y="60.00" width="33.83" height="23" fill="rgb(20,44,69)"/>
<rect x="324.14" y="60.00" width="33.83" height="23" fill="rgb(24,61,89)"/>
<rect x="358.97" y="60.00" width="33.83" height="23" fill="rgb(23,56,83)"/>
<rect x="393.79" y="60.00" width="33.83" height="23" fill="rgb(25,66,96)"/>
<rect x="428.62" y="60.00" width="33.83" height="23" fill="rgb(23,56,83)"/>
<rect x="463.45" y="60.00" width="33.83" height="23" fill="rgb(22,51,77)"/>
<rect x="498.28" y="60.00" width="33.83" height="23" fill="rgb(22,54,81)"/>
<rect x="533.10" y="60.00" width="33.83" height="23" fill="rgb(21,50,76)"/>
<rect x="567.93" y="60.00" width="33.83" height="23" fill="rgb(18,39,61)"/>
<rect x="602.76" y="60.00" width="33.83" height="23" fill="rgb(20,45,70)"/>
<rect x="637.59" y="60.00" width="33.83" height="23" fill="rgb(21,49,74)"/>
<rect x="672.41" y="60.00" width="33.83" height="23" fill="rgb(25,66,95)"/>
<rect x="707.24" y="60.00" width="33.83" height="23" fill="rgb(24,59,87)"/>
<rect x="742.07" y="60.00" width="33.83" height="23" fill="rgb(22,53,79)"/>
<rect x="776.90" y="60.00" width="33.83" height="23" fill="rgb(19,41,64)"/>
<rect x="811.72" y="60.00" width="33.83" height="23" fill="rgb(19,41,64)"/>
<rect x="846.55" y="60.00" width="33.83" height="23" fill="rgb(19,41,65)"/>
<rect x="881.38" y="60.00" width="33.83" height="23" fill="rgb(23,57,85)"/>
<rect x="916.21" y="60.00" width="33.83" height="23" fill="rgb(20,43,67)"/>
<rect x="951.03" y="60.00" width="33.83" height="23" fill="rgb(20,44,69)"/>
<rect x="985.86" y="60.00" width="33.83" height="23" fill="rgb(22,52,78)"/>
<rect x="1020.69" y="60.00" width="33.83" height="23" fill="rgb(21,50,76)"/>
<rect x="1055.52" y="60.00" width="33.83" height="23" fill="rgb(21,47,72)"/>
<rect x="1090.34" y="60.00" width="33.83" height="23" fill="rgb(20,45,70)"/>
<rect x="1125.17" y="60.00" width="33.83" height="23" fill="rgb(22,54,80)"/>
<text x="20" y="100" fill="#cbd5e1" font-size="12" font-family="Arial, sans-serif">juanma</text>
<rect x="150.00" y="84.00" width="33.83" height="23" fill="rgb(50,165,219)"/>
<rect x="184.83" y="84.00" width="33.83" height="23" fill="rgb(46,150,199)"/>
<rect x="219.66" y="84.00" width="33.83" height="23" fill="rgb(36,110,150)"/>
<rect x="254.48" y="84.00" width="33.83" height="23" fill="rgb(48,158,210)"/>
<rect x="289.31" y="84.00" width="33.83" height="23" fill="rgb(41,129,174)"/>
<rect x="324.14" y="84.00" width="33.83" height="23" fill="rgb(46,152,202)"/>
<rect x="358.97" y="84.00" width="33.83" height="23" fill="rgb(41,129,173)"/>
<rect x="393.79" y="84.00" width="33.83" height="23" fill="rgb(51,172,227)"/>
<rect x="428.62" y="84.00" width="33.83" height="23" fill="rgb(40,125,169)"/>
<rect x="463.45" y="84.00" width="33.83" height="23" fill="rgb(45,147,196)"/>
<rect x="498.28" y="84.00" width="33.83" height="23" fill="rgb(42,132,177)"/>
<rect x="533.10" y="84.00" width="33.83" height="23" fill="rgb(40,127,172)"/>
<rect x="567.93" y="84.00" width="33.83" height="23" fill="rgb(38,116,157)"/>
<rect x="602.76" y="84.00" width="33.83" height="23" fill="rgb(52,175,231)"/>
<rect x="637.59" y="84.00" width="33.83" height="23" fill="rgb(56,189,248)"/>
<rect x="672.41" y="84.00" width="33.83" height="23" fill="rgb(50,167,221)"/>
<rect x="707.24" y="84.00" width="33.83" height="23" fill="rgb(46,152,202)"/>
<rect x="742.07" y="84.00" width="33.83" height="23" fill="rgb(45,148,197)"/>
<rect x="776.90" y="84.00" width="33.83" height="23" fill="rgb(44,142,190)"/>
<rect x="811.72" y="84.00" width="33.83" height="23" fill="rgb(39,121,163)"/>
<rect x="846.55" y="84.00" width="33.83" height="23" fill="rgb(45,147,196)"/>
<rect x="881.38" y="84.00" width="33.83" height="23" fill="rgb(38,119,162)"/>
<rect x="916.21" y="84.00" width="33.83" height="23" fill="rgb(51,171,225)"/>
<rect x="951.03" y="84.00" width="33.83" height="23" fill="rgb(41,132,177)"/>
<rect x="985.86" y="84.00" width="33.83" height="23" fill="rgb(41,129,174)"/>
<rect x="1020.69" y="84.00" width="33.83" height="23" fill="rgb(40,126,170)"/>
<rect x="1055.52" y="84.00" width="33.83" height="23" fill="rgb(46,149,199)"/>
<rect x="1090.34" y="84.00" width="33.83" height="23" fill="rgb(46,148,198)"/>
<rect x="1125.17" y="84.00" width="33.83" height="23" fill="rgb(43,139,186)"/>
<text x="20" y="124" fill="#cbd5e1" font-size="12" font-family="Arial, sans-serif">ninu</text>
<rect x="150.00" y="108.00" width="33.83" height="23" fill="rgb(25,64,93)"/>
<rect x="184.83" y="108.00" width="33.83" height="23" fill="rgb(21,51,76)"/>
<rect x="219.66" y="108.00" width="33.83" height="23" fill="rgb(22,53,79)"/>
<rect x="254.48" y="108.00" width="33.83" height="23" fill="rgb(21,48,73)"/>
<rect x="289.31" y="108.00" width="33.83" height="23" fill="rgb(28,76,108)"/>
<rect x="324.14" y="108.00" width="33.83" height="23" fill="rgb(23,57,85)"/>
<rect x="358.97" y="108.00" width="33.83" height="23" fill="rgb(24,62,90)"/>
<rect x="393.79" y="108.00" width="33.83" height="23" fill="rgb(20,46,70)"/>
<rect x="428.62" y="108.00" width="33.83" height="23" fill="rgb(24,62,90)"/>
<rect x="463.45" y="108.00" width="33.83" height="23" fill="rgb(23,58,85)"/>
<rect x="498.28" y="108.00" width="33.83" height="23" fill="rgb(25,65,94)"/>
<rect x="533.10" y="108.00" width="33.83" height="23" fill="rgb(26,68,97)"/>
<rect x="567.93" y="108.00" width="33.83" height="23" fill="rgb(24,60,88)"/>
<rect x="602.76" y="108.00" width="33.83" height="23" fill="rgb(24,61,90)"/>
<rect x="637.59" y="108.00" width="33.83" height="23" fill="rgb(26,70,101)"/>
<rect x="672.41" y="108.00" width="33.83" height="23" fill="rgb(30,86,120)"/>
<rect x="707.24" y="108.00" width="33.83" height="23" fill="rgb(26,71,102)"/>
<rect x="742.07" y="108.00" width="33.83" height="23" fill="rgb(30,87,121)"/>
<rect x="776.90" y="108.00" width="33.83" height="23" fill="rgb(21,49,74)"/>
<rect x="811.72" y="108.00" width="33.83" height="23" fill="rgb(19,41,65)"/>
<rect x="846.55" y="108.00" width="33.83" height="23" fill="rgb(18,36,58)"/>
<rect x="881.38" y="108.00" width="33.83" height="23" fill="rgb(21,51,77)"/>
<rect x="916.21" y="108.00" width="33.83" height="23" fill="rgb(24,59,87)"/>
<rect x="951.03" y="108.00" width="33.83" height="23" fill="rgb(25,64,92)"/>
<rect x="985.86" y="108.00" width="33.83" height="23" fill="rgb(25,63,92)"/>
<rect x="1020.69" y="108.00" width="33.83" height="23" fill="rgb(25,66,95)"/>
<rect x="1055.52" y="108.00" width="33.83" height="23" fill="rgb(19,42,66)"/>
<rect x="1090.34" y="108.00" width="33.83" height="23" fill="rgb(26,68,98)"/>
<rect x="1125.17" y="108.00" width="33.83" height="23" fill="rgb(24,60,89)"/>
<text x="20" y="148" fill="#cbd5e1" font-size="12" font-family="Arial, sans-serif">tizi</text>
<rect x="150.00" y="132.00" width="33.83" height="23" fill="rgb(18,38,61)"/>
<rect x="184.83" y="132.00" width="33.83" height="23" fill="rgb(22,52,78)"/>
<rect x="219.66" y="132.00" width="33.83" height="23" fill="rgb(23,57,84)"/>
<rect x="254.48" y="132.00" width="33.83" height="23" fill="rgb(19,42,66)"/>
<rect x="289.31" y="132.00" width="33.83" height="23" fill="rgb(22,52,78)"/>
<rect x="324.14" y="132.00" width="33.83" height="23" fill="rgb(27,72,103)"/>
<rect x="358.97" y="132.00" width="33.83" height="23" fill="rgb(23,55,82)"/>
<rect x="393.79" y="132.00" width="33.83" height="23" fill="rgb(23,58,86)"/>
<rect x="428.62" y="132.00" width="33.83" height="23" fill="rgb(24,60,88)"/>
<rect x="463.45" y="132.00" width="33.83" height="23" fill="rgb(29,82,115)"/>
<rect x="498.28" y="132.00" width="33.83" height="23" fill="rgb(28,77,109)"/>
<rect x="533.10" y="132.00" width="33.83" height="23" fill="rgb(17,32,54)"/>
<rect x="567.93" y="132.00" width="33.83" height="23" fill="rgb(24,60,88)"/>
<rect x="602.76" y="132.00" width="33.83" height="23" fill="rgb(15,23,42)"/>
<rect x="637.59" y="132.00" width="33.83" height="23" fill="rgb(21,48,74)"/>
<rect x="672.41" y="132.00" width="33.83" height="23" fill="rgb(26,67,97)"/>
<rect x="707.24" y="132.00" width="33.83" height="23" fill="rgb(25,63,92)"/>
<rect x="742.07" y="132.00" width="33.83" height="23" fill="rgb(25,66,96)"/>
<rect x="776.90" y="132.00" width="33.83" height="23" fill="rgb(19,39,63)"/>
<rect x="811.72" y="132.00" width="33.83" height="23" fill="rgb(30,87,121)"/>
<rect x="846.55" y="132.00" width="33.83" height="23" fill="rgb(22,53,79)"/>
<rect x="881.38" y="132.00" width="33.83" height="23" fill="rgb(25,63,92)"/>
<rect x="916.21" y="132.00" width="33.83" height="23" fill="rgb(17,33,55)"/>
<rect x="951.03" y="132.00" width="33.83" height="23" fill="rgb(20,47,71)"/>
<rect x="985.86" y="132.00" width="33.83" height="23" fill="rgb(22,53,79)"/>
<rect x="1020.69" y="132.00" width="33.83" height="23" fill="rgb(21,49,75)"/>
<rect x="1055.52" y="132.00" width="33.83" height="23" fill="rgb(22,54,80)"/>
<rect x="1090.34" y="132.00" width="33.83" height="23" fill="rgb(28,77,109)"/>
<rect x="1125.17" y="132.00" width="33.83" height="23" fill="rgb(33,99,136)"/>
<text x="20" y="172" fill="#cbd5e1" font-size="12" font-family="Arial, sans-serif">vicky</text>
<rect x="150.00" y="156.00" width="33.83" height="23" fill="rgb(24,62,90)"/>
<rect x="184.83" y="156.00" width="33.83" height="23" fill="rgb(19,42,66)"/>
<rect x="219.66" y="156.00" width="33.83" height="23" fill="rgb(21,49,74)"/>
<rect x="254.48" y="156.00" width="33.83" height="23" fill="rgb(20,43,67)"/>
<rect x="289.31" y="156.00" width="33.83" height="23" fill="rgb(21,51,76)"/>
<rect x="324.14" y="156.00" width="33.83" height="23" fill="rgb(19,42,66)"/>
<rect x="358.97" y="156.00" width="33.83" height="23" fill="rgb(25,64,93)"/>
<rect x="393.79" y="156.00" width="33.83" height="23" fill="rgb(22,54,81)"/>
<rect x="428.62" y="156.00" width="33.83" height="23" fill="rgb(22,54,81)"/>
<rect x="463.45" y="156.00" width="33.83" height="23" fill="rgb(21,49,75)"/>
<rect x="498.28" y="156.00" width="33.83" height="23" fill="rgb(25,66,95)"/>
<rect x="533.10" y="156.00" width="33.83" height="23" fill="rgb(17,34,55)"/>
<rect x="567.93" y="156.00" width="33.83" height="23" fill="rgb(22,55,82)"/>
<rect x="602.76" y="156.00" width="33.83" height="23" fill="rgb(21,48,74)"/>
<rect x="637.59" y="156.00" width="33.83" height="23" fill="rgb(25,64,93)"/>
<rect x="672.41" y="156.00" width="33.83" height="23" fill="rgb(24,62,91)"/>
<rect x="707.24" y="156.00" width="33.83" height="23" fill="rgb(25,63,92)"/>
<rect x="742.07" y="156.00" width="33.83" height="23" fill="rgb(21,50,76)"/>
<rect x="776.90" y="156.00" width="33.83" height="23" fill="rgb(24,59,87)"/>
<rect x="811.72" y="156.00" width="33.83" height="23" fill="rgb(22,53,79)"/>
<rect x="846.55" y="156.00" width="33.83" height="23" fill="rgb(22,51,77)"/>
<rect x="881.38" y="156.00" width="33.83" height="23" fill="rgb(23,55,82)"/>
<rect x="916.21" y="156.00" width="33.83" height="23" fill="rgb(22,54,80)"/>
<rect x="951.03" y="156.00" width="33.83" height="23" fill="rgb(27,74,105)"/>
<rect x="985.86" y="156.00" width="33.83" height="23" fill="rgb(22,53,79)"/>
<rect x="1020.69" y="156.00" width="33.83" height="23" fill="rgb(21,47,72)"/>
<rect x="1055.52" y="156.00" width="33.83" height="23" fill="rgb(23,58,85)"/>
<rect x="1090.34" y="156.00" width="33.83" height="23" fill="rgb(25,67,97)"/>
<rect x="1125.17" y="156.00" width="33.83" height="23" fill="rgb(27,71,102)"/>
<text x="20" y="196" fill="#cbd5e1" font-size="12" font-family="Arial, sans-serif">zahi</text>
<rect x="150.00" y="180.00" width="33.83" height="23" fill="rgb(25,64,93)"/>
<rect x="184.83" y="180.00" width="33.83" height="23" fill="rgb(23,57,84)"/>
<rect x="219.66" y="180.00" width="33.83" height="23" fill="rgb(19,40,63)"/>
<rect x="254.48" y="180.00" width="33.83" height="23" fill="rgb(20,45,70)"/>
<rect x="289.31" y="180.00" width="33.83" height="23" fill="rgb(20,45,70)"/>
<rect x="324.14" y="180.00" width="33.83" height="23" fill="rgb(22,53,79)"/>
<rect x="358.97" y="180.00" width="33.83" height="23" fill="rgb(18,37,60)"/>
<rect x="393.79" y="180.00" width="33.83" height="23" fill="rgb(17,32,53)"/>
<rect x="428.62" y="180.00" width="33.83" height="23" fill="rgb(19,39,62)"/>
<rect x="463.45" y="180.00" width="33.83" height="23" fill="rgb(15,26,46)"/>
<rect x="498.28" y="180.00" width="33.83" height="23" fill="rgb(19,41,64)"/>
<rect x="533.10" y="180.00" width="33.83" height="23" fill="rgb(20,43,67)"/>
<rect x="567.93" y="180.00" width="33.83" height="23" fill="rgb(19,40,63)"/>
<rect x="602.76" y="180.00" width="33.83" height="23" fill="rgb(23,56,83)"/>
<rect x="637.59" y="180.00" width="33.83" height="23" fill="rgb(22,52,78)"/>
<rect x="672.41" y="180.00" width="33.83" height="23" fill="rgb(19,41,65)"/>
<rect x="707.24" y="180.00" width="33.83" height="23" fill="rgb(19,41,64)"/>
<rect x="742.07" y="180.00" width="33.83" height="23" fill="rgb(18,35,57)"/>
<rect x="776.90" y="180.00" width="33.83" height="23" fill="rgb(20,47,72)"/>
<rect x="811.72" y="180.00" width="33.83" height="23" fill="rgb(19,41,64)"/>
<rect x="846.55" y="180.00" width="33.83" height="23" fill="rgb(22,51,77)"/>
<rect x="881.38" y="180.00" width="33.83" height="23" fill="rgb(22,51,77)"/>
<rect x="916.21" y="180.00" width="33.83" height="23" fill="rgb(21,49,75)"/>
<rect x="951.03" y="180.00" width="33.83" height="23" fill="rgb(22,54,80)"/>
<rect x="985.86" y="180.00" width="33.83" height="23" fill="rgb(18,35,57)"/>
<rect x="1020.69" y="180.00" width="33.83" height="23" fill="rgb(24,62,91)"/>
<rect x="1055.52" y="180.00" width="33.83" height="23" fill="rgb(20,44,69)"/>
<rect x="1090.34" y="180.00" width="33.83" height="23" fill="rgb(26,71,101)"/>
<rect x="1125.17" y="180.00" width="33.83" height="23" fill="rgb(21,51,77)"/>
</svg>