<svg xmlns="http://www.w3.org/2000/svg" width="1200" height="650" viewBox="0 0 1200 650">
<rect width="100%" height="100%" fill="#0f172a"/>
<text x="24" y="34" fill="#e2e8f0" font-size="22" font-family="Arial, sans-serif">Pasos diarios alrededor de parciales</text>
<line x1="80" y1="570" x2="1170" y2="570" stroke="#94a3b8" stroke-width="1"/>
<line x1="80" y1="60" x2="80" y2="570" stroke="#94a3b8" stroke-width="1"/>
<text x="80" y="622" fill="#cbd5e1" font-size="14" font-family="Arial, sans-serif">Días relativos al parcial</text>
<text x="18" y="80" fill="#cbd5e1" font-size="14" font-family="Arial, sans-serif" transform="rotate(-90 18,80)">steps</text>
<line x1="80.0" y1="570" x2="80.0" y2="576" stroke="#94a3b8" stroke-width="1"/>
<text x="70.0" y="594" fill="#94a3b8" font-size="12" font-family="Arial, sans-serif">-14</text>
<line x1="352.5" y1="570" x2="352.5" y2="576" stroke="#94a3b8" stroke-width="1"/>
<text x="342.5" y="594" fill="#94a3b8" font-size="12" font-family="Arial, sans-serif">-7</text>
<line x1="625.0" y1="60" x2="625.0" y2="570" stroke="#e2e8f0" stroke-width="2" stroke-dasharray="6,4"/>
<line x1="625.0" y1="570" x2="625.0" y2="576" stroke="#94a3b8" stroke-width="1"/>
<text x="615.0" y="594" fill="#94a3b8" font-size="12" font-family="Arial, sans-serif">0</text>
<line x1="897.5" y1="570" x2="897.5" y2="576" stroke="#94a3b8" stroke-width="1"/>
<text x="887.5" y="594" fill="#94a3b8" font-size="12" font-family="Arial, sans-serif">7</text>
<line x1="1170.0" y1="570" x2="1170.0" y2="576" stroke="#94a3b8" stroke-width="1"/>
<text x="1160.0" y="594" fill="#94a3b8" font-size="12" font-family="Arial, sans-serif">14</text>
<line x1="74" y1="570.0" x2="80" y2="570.0" stroke="#94a3b8" stroke-width="1"/>
<text x="18" y="574.0" fill="#94a3b8" font-size="12" font-family="Arial, sans-serif">4318.63</text>
<line x1="74" y1="467.9999999999999" x2="80" y2="467.9999999999999" stroke="#94a3b8" stroke-width="1"/>
<text x="18" y="471.9999999999999" fill="#94a3b8" font-size="12" font-family="Arial, sans-serif">4534.49</text>
<line x1="74" y1="365.99999999999983" x2="80" y2="365.99999999999983" stroke="#94a3b8" stroke-width="1"/>
<text x="18" y="369.99999999999983" fill="#94a3b8" font-size="12" font-family="Arial, sans-serif">4750.36</text>
<line x1="74" y1="264.00000000000017" x2="80" y2="264.00000000000017" stroke="#94a3b8" stroke-width="1"/>
<text x="18" y="268.00000000000017" fill="#94a3b8" font-size="12" font-family="Arial, sans-serif">4966.22</text>
<line x1="74" y1="162.0000000000001" x2="80" y2="162.0000000000001" stroke="#94a3b8" stroke-width="1"/>
<text x="18" y="166.0000000000001" fill="#94a3b8" font-size="12" font-family="Arial, sans-serif">5182.09</text>
<line x1="74" y1="60.0" x2="80" y2="60.0" stroke="#94a3b8" stroke-width="1"/>
<text x="18" y="64.0" fill="#94a3b8" font-size="12" font-family="Arial, sans-serif">5397.96</text>
<path d="M 80.00 60.00 L 118.93 287.19 L 157.86 365.68 L 196.79 298.99 L 235.71 388.31 L 274.64 377.04 L 313.57 405.27 L 352.50 251.66 L 391.43 371.60 L 430.36 404.97 L 469.29 300.69 L 508.21 420.99 L 547.14 312.26 L 586.07 570.00 L 625.00 152.19 L 663.93 377.84 L 702.86 450.85 L 741.79 426.44 L 780.71 328.64 L 819.64 388.68 L 858.57 291.64 L 897.50 264.92 L 936.43 178.86 L 975.36 491.81 L 1014.29 418.00 L 1053.21 544.14 L 1092.14 428.87 L 1131.07 450.21 L 1170.00 332.32" fill="none" stroke="#38bdf8" stroke-width="3"/>
<circle cx="1170.00" cy="332.32" r="4" fill="#38bdf8"/>
<text x="1030" y="80" fill="#38bdf8" font-size="14" font-family="Arial, sans-serif">steps</text>
</svg>