<svg xmlns="http://www.w3.org/2000/svg" width="980" height="338" viewBox="0 0 980 338">
<rect width="100%" height="100%" fill="#0f172a"/>
<text x="24" y="34" fill="#e2e8f0" font-size="22" font-family="Arial, sans-serif">Matriz de soporte por estudiante y fuente</text>
<text x="24" y="58" fill="#94a3b8" font-size="13" font-family="Arial, sans-serif">Color mas intenso = cambio mayor; fuente por fila y estudiante por columna</text>
<text x="178.00" y="62" fill="#cbd5e1" font-size="11" font-family="Arial, sans-serif" transform="rotate(-35 178.00,62)">cande</text>
<text x="306.33" y="62" fill="#cbd5e1" font-size="11" font-family="Arial, sans-serif" transform="rotate(-35 306.33,62)">juanma</text>
<text x="434.67" y="62" fill="#cbd5e1" font-size="11" font-family="Arial, sans-serif" transform="rotate(-35 434.67,62)">ninu</text>
<text x="563.00" y="62" fill="#cbd5e1" font-size="11" font-family="Arial, sans-serif" transform="rotate(-35 563.00,62)">tizi</text>
<text x="691.33" y="62" fill="#cbd5e1" font-size="11" font-family="Arial, sans-serif" transform="rotate(-35 691.33,62)">vicky</text>
<text x="819.67" y="62" fill="#cbd5e1" font-size="11" font-family="Arial, sans-serif" transform="rotate(-35 819.67,62)">zahi</text>
<text x="24" y="94" fill="#cbd5e1" font-size="15" font-family="Arial, sans-serif">netflix</text>
<rect x="170.00" y="70.00" width="124.33" height="34" rx="6" fill="rgb(30,41,59)" opacity="0.92"/>
<text x="234.17" y="94" text-anchor="middle" fill="#f8fafc" font-size="12" font-family="Arial, sans-serif">+0.3</text>
<rect x="298.33" y="70.00" width="124.33" height="34" rx="6" fill="rgb(30,41,59)" opacity="0.92"/>
<text x="362.50" y="94" text-anchor="middle" fill="#f8fafc" font-size="12" font-family="Arial, sans-serif">+2.0</text>
<rect x="426.67" y="70.00" width="124.33" height="34" rx="6" fill="rgb(30,41,59)" opacity="0.92"/>
<text x="490.83" y="94" text-anchor="middle" fill="#f8fafc" font-size="12" font-family="Arial, sans-serif">+0.1</text>
<rect x="555.00" y="70.00" width="124.33" height="34" rx="6" fill="rgb(30,41,59)" opacity="0.92"/>
<text x="619.17" y="94" text-anchor="middle" fill="#f8fafc" font-size="12" font-family="Arial, sans-serif">+0.7</text>
<rect x="683.33" y="70.00" width="124.33" height="34" rx="6" fill="rgb(30,41,59)" opacity="0.92"/>
<text x="747.50" y="94" text-anchor="middle" fill="#f8fafc" font-size="12" font-family="Arial, sans-serif">+1.4</text>
<rect x="811.67" y="70.00" width="124.33" height="34" rx="6" fill="rgb(30,41,59)" opacity="0.92"/>
<text x="875.83" y="94" text-anchor="middle" fill="#f8fafc" font-size="12" font-family="Arial, sans-serif">+3.4</text>
<text x="24" y="132" fill="#cbd5e1" font-size="15" font-family="Arial, sans-serif">sleep</text>
<rect x="170.00" y="108.00" width="124.33" height="34" rx="6" fill="#1e293b" opacity="0.92"/>
<rect x="298.33" y="108.00" width="124.33" height="34" rx="6" fill="#1e293b" opacity="0.92"/>
<rect x="426.67" y="108.00" width="124.33" height="34" rx="6" fill="#1e293b" opacity="0.92"/>
<rect x="555.00" y="108.00" width="124.33" height="34" rx="6" fill="#1e293b" opacity="0.92"/>
<rect x="683.33" y="108.00" width="124.33" height="34" rx="6" fill="#1e293b" opacity="0.92"/>
<rect x="811.67" y="108.00" width="124.33" height="34" rx="6" fill="#1e293b" opacity="0.92"/>
<text x="24" y="170" fill="#cbd5e1" font-size="15" font-family="Arial, sans-serif">spotify</text>
<rect x="170.00" y="146.00" width="124.33" height="34" rx="6" fill="rgb(30,41,59)" opacity="0.92"/>
<text x="234.17" y="170" text-anchor="middle" fill="#f8fafc" font-size="12" font-family="Arial, sans-serif">+4.9</text>
<rect x="298.33" y="146.00" width="124.33" height="34" rx="6" fill="rgb(30,41,59)" opacity="0.92"/>
<text x="362.50" y="170" text-anchor="middle" fill="#f8fafc" font-size="12" font-family="Arial, sans-serif">+0.1</text>
<rect x="426.67" y="146.00" width="124.33" height="34" rx="6" fill="rgb(30,41,59)" opacity="0.92"/>
<text x="490.83" y="170" text-anchor="middle" fill="#f8fafc" font-size="12" font-family="Arial, sans-serif">+2.7</text>
<rect x="555.00" y="146.00" width="124.33" height="34" rx="6" fill="rgb(30,43,61)" opacity="0.92"/>
<text x="619.17" y="170" text-anchor="middle" fill="#f8fafc" font-size="12" font-family="Arial, sans-serif">+36.9</text>
<rect x="683.33" y="146.00" width="124.33" height="34" rx="6" fill="rgb(30,42,61)" opacity="0.92"/>
<text x="747.50" y="170" text-anchor="middle" fill="#f8fafc" font-size="12" font-family="Arial, sans-serif">+31.2</text>
<rect x="811.67" y="146.00" width="124.33" height="34" rx="6" fill="rgb(30,42,61)" opacity="0.92"/>
<text x="875.83" y="170" text-anchor="middle" fill="#f8fafc" font-size="12" font-family="Arial, sans-serif">+31.7</text>
<text x="24" y="208" fill="#cbd5e1" font-size="15" font-family="Arial, sans-serif">steps</text>
<rect x="170.00" y="184.00" width="124.33" height="34" rx="6" fill="rgb(45,130,173)" opacity="0.92"/>
<text x="234.17" y="208" text-anchor="middle" fill="#f8fafc" font-size="12" font-family="Arial, sans-serif">+1507.5</text>
<rect x="298.33" y="184.00" width="124.33" height="34" rx="6" fill="rgb(51,166,218)" opacity="0.92"/>
<text x="362.50" y="208" text-anchor="middle" fill="#f8fafc" font-size="12" font-family="Arial, sans-serif">+2105.8</text>
<rect x="426.67" y="184.00" width="124.33" height="34" rx="6" fill="rgb(56,189,248)" opacity="0.92"/>
<text x="490.83" y="208" text-anchor="middle" fill="#f8fafc" font-size="12" font-family="Arial, sans-serif">+2490.8</text>
<rect x="555.00" y="184.00" width="124.33" height="34" rx="6" fill="rgb(38,91,123)" opacity="0.92"/>
<text x="619.17" y="208" text-anchor="middle" fill="#f8fafc" font-size="12" font-family="Arial, sans-serif">+853.5</text>
<rect x="683.33" y="184.00" width="124.33" height="34" rx="6" fill="rgb(48,148,196)" opacity="0.92"/>
<text x="747.50" y="208" text-anchor="middle" fill="#f8fafc" font-size="12" font-family="Arial, sans-serif">+1809.4</text>
<rect x="811.67" y="184.00" width="124.33" height="34" rx="6" fill="rgb(50,160,211)" opacity="0.92"/>
<text x="875.83" y="208" text-anchor="middle" fill="#f8fafc" font-size="12" font-family="Arial, sans-serif">+2010.3</text>
</svg>