<svg xmlns="http://www.w3.org/2000/svg" width="1080" height="338" viewBox="0 0 1080 338">
<rect width="100%" height="100%" fill="#0f172a"/>
<text x="24" y="34" fill="#e2e8f0" font-size="22" font-family="Arial, sans-serif">Matriz de soporte por estudiante y fuente</text>
<text x="24" y="58" fill="#94a3b8" font-size="13" font-family="Arial, sans-serif">Color mas intenso = cambio mayor; fuente por fila y estudiante por columna</text>
<text x="178.00" y="62" fill="#cbd5e1" font-size="11" font-family="Arial, sans-serif" transform="rotate(-35 178.00,62)">Nina</text>
<text x="302.29" y="62" fill="#cbd5e1" font-size="11" font-family="Arial, sans-serif" transform="rotate(-35 302.29,62)">cande</text>
<text x="426.57" y="62" fill="#cbd5e1" font-size="11" font-family="Arial, sans-serif" transform="rotate(-35 426.57,62)">juanma</text>
<text x="550.86" y="62" fill="#cbd5e1" font-size="11" font-family="Arial, sans-serif" transform="rotate(-35 550.86,62)">ninu</text>
<text x="675.14" y="62" fill="#cbd5e1" font-size="11" font-family="Arial, sans-serif" transform="rotate(-35 675.14,62)">tizi</text>
<text x="799.43" y="62" fill="#cbd5e1" font-size="11" font-family="Arial, sans-serif" transform="rotate(-35 799.43,62)">vicky</text>
<text x="923.71" y="62" fill="#cbd5e1" font-size="11" font-family="Arial, sans-serif" transform="rotate(-35 923.71,62)">zahi</text>
<text x="24" y="94" fill="#cbd5e1" font-size="15" font-family="Arial, sans-serif">netflix</text>
<rect x="170.00" y="70.00" width="120.29" height="34" rx="6" fill="#1e293b" opacity="0.92"/>
<rect x="294.29" y="70.00" width="120.29" height="34" rx="6" fill="rgb(30,41,59)" opacity="0.92"/>
<text x="356.43" y="94" text-anchor="middle" fill="#f8fafc" font-size="12" font-family="Arial, sans-serif">+0.3</text>
<rect x="418.57" y="70.00" width="120.29" height="34" rx="6" fill="rgb(30,41,59)" opacity="0.92"/>
<text x="480.71" y="94" text-anchor="middle" fill="#f8fafc" font-size="12" font-family="Arial, sans-serif">+2.0</text>
<rect x="542.86" y="70.00" width="120.29" height="34" rx="6" fill="rgb(30,41,59)" opacity="0.92"/>
<text x="605.00" y="94" text-anchor="middle" fill="#f8fafc" font-size="12" font-family="Arial, sans-serif">+0.1</text>
<rect x="667.14" y="70.00" width="120.29" height="34" rx="6" fill="rgb(30,41,59)" opacity="0.92"/>
<text x="729.29" y="94" text-anchor="middle" fill="#f8fafc" font-size="12" font-family="Arial, sans-serif">+0.7</text>
<rect x="791.43" y="70.00" width="120.29" height="34" rx="6" fill="rgb(30,41,59)" opacity="0.92"/>
<text x="853.57" y="94" text-anchor="middle" fill="#f8fafc" font-size="12" font-family="Arial, sans-serif">+1.4</text>
<rect x="915.71" y="70.00" width="120.29" height="34" rx="6" fill="rgb(30,41,59)" opacity="0.92"/>
<text x="977.86" y="94" text-anchor="middle" fill="#f8fafc" font-size="12" font-family="Arial, sans-serif">+3.4</text>
<text x="24" y="132" fill="#cbd5e1" font-size="15" font-family="Arial, sans-serif">sleep</text>
<rect x="170.00" y="108.00" width="120.29" height="34" rx="6" fill="#1e293b" opacity="0.92"/>
<rect x="294.29" y="108.00" width="120.29" height="34" rx="6" fill="#1e293b" opacity="0.92"/>
<rect x="418.57" y="108.00" width="120.29" height="34" rx="6" fill="#1e293b" opacity="0.92"/>
<rect x="542.86" y="108.00" width="120.29" height="34" rx="6" fill="#1e293b" opacity="0.92"/>
<rect x="667.14" y="108.00" width="120.29" height="34" rx="6" fill="#1e293b" opacity="0.92"/>
<rect x="791.43" y="108.00" width="120.29" height="34" rx="6" fill="#1e293b" opacity="0.92"/>
<rect x="915.71" y="108.00" width="120.29" height="34" rx="6" fill="#1e293b" opacity="0.92"/>
<text x="24" y="170" fill="#cbd5e1" font-size="15" font-family="Arial, sans-serif">spotify</text>
<rect x="170.00" y="146.00" width="120.29" height="34" rx="6" fill="#1e293b" opacity="0.92"/>
<rect x="294.29" y="146.00" width="120.29" height="34" rx="6" fill="rgb(30,41,59)" opacity="0.92"/>
<text x="356.43" y="170" text-anchor="middle" fill="#f8fafc" font-size="12" font-family="Arial, sans-serif">+4.9</text>
<rect x="418.57" y="146.00" width="120.29" height="34" rx="6" fill="rgb(30,41,59)" opacity="0.92"/>
<text x="480.71" y="170" text-anchor="middle" fill="#f8fafc" font-size="12" font-family="Arial, sans-serif">+0.1</text>
<rect x="542.86" y="146.00" width="120.29" height="34" rx="6" fill="rgb(30,41,59)" opacity="0.92"/>
<text x="605.00" y="170" text-anchor="middle" fill="#f8fafc" font-size="12" font-family="Arial, sans-serif">+2.7</text>
<rect x="667.14" y="146.00" width="120.29" height="34" rx="6" fill="rgb(30,43,61)" opacity="0.92"/>
<text x="729.29" y="170" text-anchor="middle" fill="#f8fafc" font-size="12" font-family="Arial, sans-serif">+36.9</text>
<rect x="791.43" y="146.00" width="120.29" height="34" rx="6" fill="rgb(30,42,61)" opacity="0.92"/>
<text x="853.57" y="170" text-anchor="middle" fill="#f8fafc" font-size="12" font-family="Arial, sans-serif">+31.2</text>
<rect x="915.71" y="146.00" width="120.29" height="34" rx="6" fill="rgb(30,42,61)" opacity="0.92"/>
<text x="977.86" y="170" text-anchor="middle" fill="#f8fafc" font-size="12" font-family="Arial, sans-serif">+31.7</text>
<text x="24" y="208" fill="#cbd5e1" font-size="15" font-family="Arial, sans-serif">steps</text>
<rect x="170.00" y="184.00" width="120.29" height="34" rx="6" fill="rgb(56,189,248)" opacity="0.92"/>
<text x="232.14" y="208" text-anchor="middle" fill="#f8fafc" font-size="12" font-family="Arial, sans-serif">+2490.8</text>
<rect x="294.29" y="184.00" width="120.29" height="34" rx="6" fill="rgb(45,130,173)" opacity="0.92"/>
<text x="356.43" y="208" text-anchor="middle" fill="#f8fafc" font-size="12" font-family="Arial, sans-serif">+1507.5</text>
<rect x="418.57" y="184.00" width="120.29" height="34" rx="6" fill="rgb(51,166,218)" opacity="0.92"/>
<text x="480.71" y="208" text-anchor="middle" fill="#f8fafc" font-size="12" font-family="Arial, sans-serif">+2105.8</text>
<rect x="542.86" y="184.00" width="120.29" height="34" rx="6" fill="#1e293b" opacity="0.92"/>
<rect x="667.14" y="184.00" width="120.29" height="34" rx="6" fill="rgb(38,91,123)" opacity="0.92"/>
<text x="729.29" y="208" text-anchor="middle" fill="#f8fafc" font-size="12" font-family="Arial, sans-serif">+853.5</text>
<rect x="791.43" y="184.00" width="120.29" height="34" rx="6" fill="rgb(48,148,196)" opacity="0.92"/>
<text x="853.57" y="208" text-anchor="middle" fill="#f8fafc" font-size="12" font-family="Arial, sans-serif">+1809.4</text>
<rect x="915.71" y="184.00" width="120.29" height="34" rx="6" fill="rgb(50,160,211)" opacity="0.92"/>
<text x="977.86" y="208" text-anchor="middle" fill="#f8fafc" font-size="12" font-family="Arial, sans-serif">+2010.3</text>
</svg>