<svg xmlns="http://www.w3.org/2000/svg" width="1280" height="510" viewBox="0 0 1280 510">
<rect width="100%" height="100%" fill="#0f172a"/>
<text x="24" y="34" fill="#e2e8f0" font-size="22" font-family="Arial, sans-serif">Top cambios con mayor soporte</text>
<text x="24" y="58" fill="#94a3b8" font-size="13" font-family="Arial, sans-serif">Top cambios ordenados por support_score; rojo = caida, verde = aumento</text>
<line x1="280" y1="70" x2="280" y2="460" stroke="#334155" stroke-width="1"/>
<line x1="280" y1="460" x2="1210" y2="460" stroke="#334155" stroke-width="1"/>
<text x="280" y="492" fill="#cbd5e1" font-size="12" font-family="Arial, sans-serif">0</text>
<text x="24" y="92" fill="#e2e8f0" font-size="16" font-family="Arial, sans-serif">ninu</text>
<text x="160" y="92" fill="#94a3b8" font-size="13" font-family="Arial, sans-serif">steps</text>
<rect x="280" y="78" width="930.00" height="18" rx="8" fill="#22c55e" opacity="0.85"/>
<text x="1090.00" y="92" fill="#e2e8f0" font-size="13" font-family="Arial, sans-serif">+430.4 (+12.5%) | score 2490.8</text>
<text x="24" y="126" fill="#e2e8f0" font-size="16" font-family="Arial, sans-serif">juanma</text>
<text x="160" y="126" fill="#94a3b8" font-size="13" font-family="Arial, sans-serif">steps</text>
<rect x="280" y="112" width="786.24" height="18" rx="8" fill="#ef4444" opacity="0.85"/>
<text x="1078.24" y="126" fill="#e2e8f0" font-size="13" font-family="Arial, sans-serif">-323.4 (-6.0%) | score 2105.8</text>
<text x="24" y="160" fill="#e2e8f0" font-size="16" font-family="Arial, sans-serif">zahi</text>
<text x="160" y="160" fill="#94a3b8" font-size="13" font-family="Arial, sans-serif">steps</text>
<rect x="280" y="146" width="750.59" height="18" rx="8" fill="#22c55e" opacity="0.85"/>
<text x="1042.59" y="160" fill="#e2e8f0" font-size="13" font-family="Arial, sans-serif">+290.6 (+6.5%) | score 2010.3</text>
<text x="24" y="194" fill="#e2e8f0" font-size="16" font-family="Arial, sans-serif">vicky</text>
<text x="160" y="194" fill="#94a3b8" font-size="13" font-family="Arial, sans-serif">steps</text>
<rect x="280" y="180" width="675.60" height="18" rx="8" fill="#ef4444" opacity="0.85"/>
<text x="967.60" y="194" fill="#e2e8f0" font-size="13" font-family="Arial, sans-serif">-280.0 (-8.1%) | score 1809.4</text>
<text x="24" y="228" fill="#e2e8f0" font-size="16" font-family="Arial, sans-serif">cande</text>
<text x="160" y="228" fill="#94a3b8" font-size="13" font-family="Arial, sans-serif">steps</text>
<rect x="280" y="214" width="562.86" height="18" rx="8" fill="#22c55e" opacity="0.85"/>
<text x="854.86" y="228" fill="#e2e8f0" font-size="13" font-family="Arial, sans-serif">+207.8 (+5.8%) | score 1507.5</text>
<text x="24" y="262" fill="#e2e8f0" font-size="16" font-family="Arial, sans-serif">tizi</text>
<text x="160" y="262" fill="#94a3b8" font-size="13" font-family="Arial, sans-serif">steps</text>
<rect x="280" y="248" width="318.69" height="18" rx="8" fill="#ef4444" opacity="0.85"/>
<text x="610.69" y="262" fill="#e2e8f0" font-size="13" font-family="Arial, sans-serif">-120.0 (-1.7%) | score 853.5</text>
<text x="24" y="296" fill="#e2e8f0" font-size="16" font-family="Arial, sans-serif">tizi</text>
<text x="160" y="296" fill="#94a3b8" font-size="13" font-family="Arial, sans-serif">spotify</text>
<rect x="280" y="282" width="13.79" height="18" rx="8" fill="#22c55e" opacity="0.85"/>
<text x="305.79" y="296" fill="#e2e8f0" font-size="13" font-family="Arial, sans-serif">+6.5 (+8.2%) | score 36.9</text>
<text x="24" y="330" fill="#e2e8f0" font-size="16" font-family="Arial, sans-serif">zahi</text>
<text x="160" y="330" fill="#94a3b8" font-size="13" font-family="Arial, sans-serif">spotify</text>
<rect x="280" y="316" width="11.83" height="18" rx="8" fill="#22c55e" opacity="0.85"/>
<text x="303.83" y="330" fill="#e2e8f0" font-size="13" font-family="Arial, sans-serif">+5.3 (+8.7%) | score 31.7</text>
<text x="24" y="364" fill="#e2e8f0" font-size="16" font-family="Arial, sans-serif">vicky</text>
<text x="160" y="364" fill="#94a3b8" font-size="13" font-family="Arial, sans-serif">spotify</text>
<rect x="280" y="350" width="11.65" height="18" rx="8" fill="#22c55e" opacity="0.85"/>
<text x="303.65" y="364" fill="#e2e8f0" font-size="13" font-family="Arial, sans-serif">+4.9 (+6.7%) | score 31.2</text>
<text x="24" y="398" fill="#e2e8f0" font-size="16" font-family="Arial, sans-serif">cande</text>
<text x="160" y="398" fill="#94a3b8" font-size="13" font-family="Arial, sans-serif">spotify</text>
<rect x="280" y="384" width="1.81" height="18" rx="8" fill="#ef4444" opacity="0.85"/>
<text x="293.81" y="398" fill="#e2e8f0" font-size="13" font-family="Arial, sans-serif">-0.8 (-1.0%) | score 4.9</text>
</svg>